# xmcd CD database file
#
# Track frame offsets:
#	150
#	28742
#	58118
#	83120
#	101361
#	126448
#	152585
#
# Disc length: 2906 seconds
#
# Revision: 1
# Processed by: cddbd v1.5.2PL0 Copyright (c) Steve Scherf et al.
# Submitted via: CDex 1.70beta2
#
DISCID=530b5807
DTITLE=The Derek Trucks Band - Roadsongs [Disc 1]
DYEAR=2010
DGENRE=Blues
TTITLE0=I'll Find My Way
TTITLE1=Down in the Flood
TTITLE2=Sailing On
TTITLE3=Get What You Deserve
TTITLE4=Days Is Almost Gone
TTITLE5=Already Free
TTITLE6=Afro Blue
EXTD=YEAR: 2010
EXTT0=
EXTT1=
EXTT2=
EXTT3=
EXTT4=
EXTT5=
EXTT6=
PLAYORDER=
